<?xml version="1.0" encoding="UTF-8"?>
<!DOCTYPE svg PUBLIC "-//W3C//DTD SVG 1.1//EN" "http://www.w3.org/Graphics/SVG/1.1/DTD/svg11.dtd">
<svg xmlns="http://www.w3.org/2000/svg" version="1.1" width="192px" height="192px" style="shape-rendering:geometricPrecision; text-rendering:geometricPrecision; image-rendering:optimizeQuality; fill-rule:evenodd; clip-rule:evenodd" xmlns:xlink="http://www.w3.org/1999/xlink">
<g><path style="opacity:0.997" fill="#fefefe" d="M 10.5,-0.5 C 67.1667,-0.5 123.833,-0.5 180.5,-0.5C 184.5,2.83333 188.167,6.5 191.5,10.5C 191.5,67.1667 191.5,123.833 191.5,180.5C 188.167,184.5 184.5,188.167 180.5,191.5C 123.833,191.5 67.1667,191.5 10.5,191.5C 6.5,188.167 2.83333,184.5 -0.5,180.5C -0.5,123.833 -0.5,67.1667 -0.5,10.5C 2.83333,6.5 6.5,2.83333 10.5,-0.5 Z"/></g>
<g><path style="opacity:1" fill="#585858" d="M 22.5,48.5 C 24.1992,48.3398 25.8659,48.5065 27.5,49C 30.0886,52.0969 33.0886,54.5969 36.5,56.5C 49.316,49.377 62.316,48.877 75.5,55C 82.7526,63.5771 81.7526,71.2438 72.5,78C 62.6893,81.8517 53.356,81.0184 44.5,75.5C 43.1646,79.8697 43.9979,83.8697 47,87.5C 51.08,88.3002 55.2467,88.8002 59.5,89C 63.5,92 63.5,95 59.5,98C 54.6565,99.6048 49.8232,99.7715 45,98.5C 40.0079,101.983 37.5079,106.816 37.5,113C 37.2301,119.798 40.2301,124.465 46.5,127C 61.1574,130.004 73.1574,125.671 82.5,114C 83.448,113.517 84.448,113.351 85.5,113.5C 86.1744,118.984 85.0077,123.984 82,128.5C 69.5466,140.533 54.7133,144.7 37.5,141C 17.8772,134.019 12.7105,121.186 22,102.5C 25.4154,98.5776 29.2487,95.2443 33.5,92.5C 26.2414,84.1125 24.5747,74.6125 28.5,64C 25.2297,59.298 23.2297,54.1313 22.5,48.5 Z"/></g>
<g><path style="opacity:1" fill="#585858" d="M 116.5,51.5 C 129.292,49.8349 141.292,52.0016 152.5,58C 155.372,60.5366 157.872,63.3699 160,66.5C 163.378,83.2405 157.545,95.4072 142.5,103C 144.772,111.148 147.438,119.148 150.5,127C 152.971,127.706 155.305,127.373 157.5,126C 161.833,123 165.5,119.333 168.5,115C 169.993,113.632 171.493,113.465 173,114.5C 172.649,126.978 166.482,135.478 154.5,140C 149.14,141.944 143.807,141.944 138.5,140C 136.959,138.421 135.792,136.587 135,134.5C 133.008,124.568 131.341,114.568 130,104.5C 124.266,103.448 121.599,100.115 122,94.5C 126.14,92.2636 130.473,91.9303 135,93.5C 142.15,87.4534 144.483,79.7867 142,70.5C 135.395,63.3668 127.229,60.8668 117.5,63C 110.851,64.4919 104.518,66.8252 98.5,70C 96.8659,70.4935 95.1992,70.6602 93.5,70.5C 93.3433,69.1266 93.51,67.7932 94,66.5C 100.343,59.5912 107.843,54.5912 116.5,51.5 Z"/></g>
<g><path style="opacity:1" fill="#f3f3f3" d="M 55.5,62.5 C 58.941,62.3011 62.2744,62.8011 65.5,64C 67.5552,69.4619 65.5552,71.9619 59.5,71.5C 54.8765,71.5164 50.8765,70.0164 47.5,67C 49.8196,64.6785 52.4862,63.1785 55.5,62.5 Z"/></g>
<g><path style="opacity:1" fill="#585858" d="M 115.5,70.5 C 117.167,70.5 118.833,70.5 120.5,70.5C 120.666,75.5111 120.499,80.5111 120,85.5C 114.419,100.99 112.086,116.99 113,133.5C 112.55,135.519 111.717,137.352 110.5,139C 106.537,141.83 102.204,143.163 97.5,143C 96.2986,142.097 95.4652,140.931 95,139.5C 94.0238,129.713 94.6904,120.046 97,110.5C 99.4419,101.621 102.442,92.9547 106,84.5C 108.435,79.2851 111.601,74.6185 115.5,70.5 Z"/></g>
</svg>
